<mxfile host="Electron" modified="2024-09-18T02:50:39.834Z" agent="Mozilla/5.0 (X11; Linux x86_64) AppleWebKit/537.36 (KHTML, like Gecko) draw.io/24.2.5 Chrome/120.0.6099.109 Electron/28.1.0 Safari/537.36" etag="mk3tKmkcewgKfG22MZS4" version="24.2.5" type="device">
  <diagram name="Page-1" id="i3XIMCFwjhVZygJSHQqA">
    <mxGraphModel dx="1420" dy="821" grid="1" gridSize="10" guides="1" tooltips="1" connect="1" arrows="1" fold="1" page="1" pageScale="1" pageWidth="850" pageHeight="1100" math="0" shadow="0">
      <root>
        <mxCell id="0" />
        <mxCell id="1" parent="0" />
        <mxCell id="kp8vzS06gtG1bZWTTT-e-1" value="" style="shape=table;startSize=0;container=1;collapsible=0;childLayout=tableLayout;fontSize=16;rounded=1;shadow=0;strokeColor=#6c8ebf;strokeWidth=1;fontFamily=Ubuntu;fontStyle=0;fillColor=none;" vertex="1" parent="1">
          <mxGeometry x="330" y="360" width="300" height="240" as="geometry" />
        </mxCell>
        <mxCell id="kp8vzS06gtG1bZWTTT-e-32" style="shape=tableRow;horizontal=0;startSize=0;swimlaneHead=0;swimlaneBody=0;strokeColor=inherit;top=0;left=0;bottom=0;right=0;collapsible=0;dropTarget=0;fillColor=none;points=[[0,0.5],[1,0.5]];portConstraint=eastwest;fontSize=16;rounded=1;shadow=0;strokeWidth=1;fontFamily=Ubuntu;fontStyle=0;" vertex="1" parent="kp8vzS06gtG1bZWTTT-e-1">
          <mxGeometry width="300" height="40" as="geometry" />
        </mxCell>
        <mxCell id="kp8vzS06gtG1bZWTTT-e-33" value="0" style="shape=partialRectangle;html=1;whiteSpace=wrap;connectable=0;strokeColor=inherit;overflow=hidden;fillColor=none;top=0;left=0;bottom=0;right=0;pointerEvents=1;fontSize=16;rounded=1;shadow=0;strokeWidth=1;fontFamily=Ubuntu;fontStyle=0;" vertex="1" parent="kp8vzS06gtG1bZWTTT-e-32">
          <mxGeometry width="60" height="40" as="geometry">
            <mxRectangle width="60" height="40" as="alternateBounds" />
          </mxGeometry>
        </mxCell>
        <mxCell id="kp8vzS06gtG1bZWTTT-e-34" value="0" style="shape=partialRectangle;html=1;whiteSpace=wrap;connectable=0;strokeColor=inherit;overflow=hidden;fillColor=none;top=0;left=0;bottom=0;right=0;pointerEvents=1;fontSize=16;rounded=1;shadow=0;strokeWidth=1;fontFamily=Ubuntu;fontStyle=0;" vertex="1" parent="kp8vzS06gtG1bZWTTT-e-32">
          <mxGeometry x="60" width="60" height="40" as="geometry">
            <mxRectangle width="60" height="40" as="alternateBounds" />
          </mxGeometry>
        </mxCell>
        <mxCell id="kp8vzS06gtG1bZWTTT-e-35" value="0" style="shape=partialRectangle;html=1;whiteSpace=wrap;connectable=0;strokeColor=inherit;overflow=hidden;fillColor=none;top=0;left=0;bottom=0;right=0;pointerEvents=1;fontSize=16;rounded=1;shadow=0;strokeWidth=1;fontFamily=Ubuntu;fontStyle=0;" vertex="1" parent="kp8vzS06gtG1bZWTTT-e-32">
          <mxGeometry x="120" width="60" height="40" as="geometry">
            <mxRectangle width="60" height="40" as="alternateBounds" />
          </mxGeometry>
        </mxCell>
        <mxCell id="kp8vzS06gtG1bZWTTT-e-36" value="-1" style="shape=partialRectangle;html=1;whiteSpace=wrap;connectable=0;strokeColor=inherit;overflow=hidden;fillColor=none;top=0;left=0;bottom=0;right=0;pointerEvents=1;fontSize=16;rounded=1;shadow=0;strokeWidth=1;fontFamily=Ubuntu;fontStyle=0;" vertex="1" parent="kp8vzS06gtG1bZWTTT-e-32">
          <mxGeometry x="180" width="60" height="40" as="geometry">
            <mxRectangle width="60" height="40" as="alternateBounds" />
          </mxGeometry>
        </mxCell>
        <mxCell id="kp8vzS06gtG1bZWTTT-e-37" value="0" style="shape=partialRectangle;html=1;whiteSpace=wrap;connectable=0;strokeColor=inherit;overflow=hidden;fillColor=none;top=0;left=0;bottom=0;right=0;pointerEvents=1;fontSize=16;rounded=1;shadow=0;strokeWidth=1;fontFamily=Ubuntu;fontStyle=0;" vertex="1" parent="kp8vzS06gtG1bZWTTT-e-32">
          <mxGeometry x="240" width="60" height="40" as="geometry">
            <mxRectangle width="60" height="40" as="alternateBounds" />
          </mxGeometry>
        </mxCell>
        <mxCell id="kp8vzS06gtG1bZWTTT-e-26" style="shape=tableRow;horizontal=0;startSize=0;swimlaneHead=0;swimlaneBody=0;strokeColor=inherit;top=0;left=0;bottom=0;right=0;collapsible=0;dropTarget=0;fillColor=none;points=[[0,0.5],[1,0.5]];portConstraint=eastwest;fontSize=16;rounded=1;shadow=0;strokeWidth=1;fontFamily=Ubuntu;fontStyle=0;" vertex="1" parent="kp8vzS06gtG1bZWTTT-e-1">
          <mxGeometry y="40" width="300" height="40" as="geometry" />
        </mxCell>
        <mxCell id="kp8vzS06gtG1bZWTTT-e-27" value="0" style="shape=partialRectangle;html=1;whiteSpace=wrap;connectable=0;strokeColor=inherit;overflow=hidden;fillColor=none;top=0;left=0;bottom=0;right=0;pointerEvents=1;fontSize=16;rounded=1;shadow=0;strokeWidth=1;fontFamily=Ubuntu;fontStyle=0;" vertex="1" parent="kp8vzS06gtG1bZWTTT-e-26">
          <mxGeometry width="60" height="40" as="geometry">
            <mxRectangle width="60" height="40" as="alternateBounds" />
          </mxGeometry>
        </mxCell>
        <mxCell id="kp8vzS06gtG1bZWTTT-e-28" value="0" style="shape=partialRectangle;html=1;whiteSpace=wrap;connectable=0;strokeColor=inherit;overflow=hidden;fillColor=none;top=0;left=0;bottom=0;right=0;pointerEvents=1;fontSize=16;rounded=1;shadow=0;strokeWidth=1;fontFamily=Ubuntu;fontStyle=0;" vertex="1" parent="kp8vzS06gtG1bZWTTT-e-26">
          <mxGeometry x="60" width="60" height="40" as="geometry">
            <mxRectangle width="60" height="40" as="alternateBounds" />
          </mxGeometry>
        </mxCell>
        <mxCell id="kp8vzS06gtG1bZWTTT-e-29" value="0" style="shape=partialRectangle;html=1;whiteSpace=wrap;connectable=0;strokeColor=inherit;overflow=hidden;fillColor=none;top=0;left=0;bottom=0;right=0;pointerEvents=1;fontSize=16;rounded=1;shadow=0;strokeWidth=1;fontFamily=Ubuntu;fontStyle=0;" vertex="1" parent="kp8vzS06gtG1bZWTTT-e-26">
          <mxGeometry x="120" width="60" height="40" as="geometry">
            <mxRectangle width="60" height="40" as="alternateBounds" />
          </mxGeometry>
        </mxCell>
        <mxCell id="kp8vzS06gtG1bZWTTT-e-30" value="0" style="shape=partialRectangle;html=1;whiteSpace=wrap;connectable=0;strokeColor=inherit;overflow=hidden;fillColor=none;top=0;left=0;bottom=0;right=0;pointerEvents=1;fontSize=16;rounded=1;shadow=0;strokeWidth=1;fontFamily=Ubuntu;fontStyle=0;" vertex="1" parent="kp8vzS06gtG1bZWTTT-e-26">
          <mxGeometry x="180" width="60" height="40" as="geometry">
            <mxRectangle width="60" height="40" as="alternateBounds" />
          </mxGeometry>
        </mxCell>
        <mxCell id="kp8vzS06gtG1bZWTTT-e-31" value="0" style="shape=partialRectangle;html=1;whiteSpace=wrap;connectable=0;strokeColor=inherit;overflow=hidden;fillColor=none;top=0;left=0;bottom=0;right=0;pointerEvents=1;fontSize=16;rounded=1;shadow=0;strokeWidth=1;fontFamily=Ubuntu;fontStyle=0;" vertex="1" parent="kp8vzS06gtG1bZWTTT-e-26">
          <mxGeometry x="240" width="60" height="40" as="geometry">
            <mxRectangle width="60" height="40" as="alternateBounds" />
          </mxGeometry>
        </mxCell>
        <mxCell id="kp8vzS06gtG1bZWTTT-e-20" style="shape=tableRow;horizontal=0;startSize=0;swimlaneHead=0;swimlaneBody=0;strokeColor=inherit;top=0;left=0;bottom=0;right=0;collapsible=0;dropTarget=0;fillColor=none;points=[[0,0.5],[1,0.5]];portConstraint=eastwest;fontSize=16;rounded=1;shadow=0;strokeWidth=1;fontFamily=Ubuntu;fontStyle=0;" vertex="1" parent="kp8vzS06gtG1bZWTTT-e-1">
          <mxGeometry y="80" width="300" height="40" as="geometry" />
        </mxCell>
        <mxCell id="kp8vzS06gtG1bZWTTT-e-21" value="0" style="shape=partialRectangle;html=1;whiteSpace=wrap;connectable=0;strokeColor=inherit;overflow=hidden;fillColor=none;top=0;left=0;bottom=0;right=0;pointerEvents=1;fontSize=16;rounded=1;shadow=0;strokeWidth=1;fontFamily=Ubuntu;fontStyle=0;" vertex="1" parent="kp8vzS06gtG1bZWTTT-e-20">
          <mxGeometry width="60" height="40" as="geometry">
            <mxRectangle width="60" height="40" as="alternateBounds" />
          </mxGeometry>
        </mxCell>
        <mxCell id="kp8vzS06gtG1bZWTTT-e-22" value="0" style="shape=partialRectangle;html=1;whiteSpace=wrap;connectable=0;strokeColor=inherit;overflow=hidden;fillColor=none;top=0;left=0;bottom=0;right=0;pointerEvents=1;fontSize=16;rounded=1;shadow=0;strokeWidth=1;fontFamily=Ubuntu;fontStyle=0;" vertex="1" parent="kp8vzS06gtG1bZWTTT-e-20">
          <mxGeometry x="60" width="60" height="40" as="geometry">
            <mxRectangle width="60" height="40" as="alternateBounds" />
          </mxGeometry>
        </mxCell>
        <mxCell id="kp8vzS06gtG1bZWTTT-e-23" value="-1" style="shape=partialRectangle;html=1;whiteSpace=wrap;connectable=0;strokeColor=inherit;overflow=hidden;fillColor=none;top=0;left=0;bottom=0;right=0;pointerEvents=1;fontSize=16;rounded=1;shadow=0;strokeWidth=1;fontFamily=Ubuntu;fontStyle=0;" vertex="1" parent="kp8vzS06gtG1bZWTTT-e-20">
          <mxGeometry x="120" width="60" height="40" as="geometry">
            <mxRectangle width="60" height="40" as="alternateBounds" />
          </mxGeometry>
        </mxCell>
        <mxCell id="kp8vzS06gtG1bZWTTT-e-24" value="4" style="shape=partialRectangle;html=1;whiteSpace=wrap;connectable=0;strokeColor=#264653;overflow=hidden;fillColor=#2a9d8f;top=0;left=0;bottom=0;right=0;pointerEvents=1;fontSize=16;rounded=1;shadow=0;strokeWidth=1;fontFamily=Ubuntu;fontStyle=0;" vertex="1" parent="kp8vzS06gtG1bZWTTT-e-20">
          <mxGeometry x="180" width="60" height="40" as="geometry">
            <mxRectangle width="60" height="40" as="alternateBounds" />
          </mxGeometry>
        </mxCell>
        <mxCell id="kp8vzS06gtG1bZWTTT-e-25" value="0" style="shape=partialRectangle;html=1;whiteSpace=wrap;connectable=0;strokeColor=inherit;overflow=hidden;fillColor=none;top=0;left=0;bottom=0;right=0;pointerEvents=1;fontSize=16;rounded=1;shadow=0;strokeWidth=1;fontFamily=Ubuntu;fontStyle=0;" vertex="1" parent="kp8vzS06gtG1bZWTTT-e-20">
          <mxGeometry x="240" width="60" height="40" as="geometry">
            <mxRectangle width="60" height="40" as="alternateBounds" />
          </mxGeometry>
        </mxCell>
        <mxCell id="kp8vzS06gtG1bZWTTT-e-2" value="" style="shape=tableRow;horizontal=0;startSize=0;swimlaneHead=0;swimlaneBody=0;strokeColor=inherit;top=0;left=0;bottom=0;right=0;collapsible=0;dropTarget=0;fillColor=none;points=[[0,0.5],[1,0.5]];portConstraint=eastwest;fontSize=16;rounded=1;shadow=0;strokeWidth=1;fontFamily=Ubuntu;fontStyle=0;" vertex="1" parent="kp8vzS06gtG1bZWTTT-e-1">
          <mxGeometry y="120" width="300" height="40" as="geometry" />
        </mxCell>
        <mxCell id="kp8vzS06gtG1bZWTTT-e-17" value="0" style="shape=partialRectangle;html=1;whiteSpace=wrap;connectable=0;strokeColor=inherit;overflow=hidden;fillColor=none;top=0;left=0;bottom=0;right=0;pointerEvents=1;fontSize=16;rounded=1;shadow=0;strokeWidth=1;fontFamily=Ubuntu;fontStyle=0;" vertex="1" parent="kp8vzS06gtG1bZWTTT-e-2">
          <mxGeometry width="60" height="40" as="geometry">
            <mxRectangle width="60" height="40" as="alternateBounds" />
          </mxGeometry>
        </mxCell>
        <mxCell id="kp8vzS06gtG1bZWTTT-e-14" value="0" style="shape=partialRectangle;html=1;whiteSpace=wrap;connectable=0;strokeColor=inherit;overflow=hidden;fillColor=none;top=0;left=0;bottom=0;right=0;pointerEvents=1;fontSize=16;rounded=1;shadow=0;strokeWidth=1;fontFamily=Ubuntu;fontStyle=0;" vertex="1" parent="kp8vzS06gtG1bZWTTT-e-2">
          <mxGeometry x="60" width="60" height="40" as="geometry">
            <mxRectangle width="60" height="40" as="alternateBounds" />
          </mxGeometry>
        </mxCell>
        <mxCell id="kp8vzS06gtG1bZWTTT-e-3" value="0" style="shape=partialRectangle;html=1;whiteSpace=wrap;connectable=0;strokeColor=inherit;overflow=hidden;fillColor=none;top=0;left=0;bottom=0;right=0;pointerEvents=1;fontSize=16;rounded=1;shadow=0;strokeWidth=1;fontFamily=Ubuntu;fontStyle=0;" vertex="1" parent="kp8vzS06gtG1bZWTTT-e-2">
          <mxGeometry x="120" width="60" height="40" as="geometry">
            <mxRectangle width="60" height="40" as="alternateBounds" />
          </mxGeometry>
        </mxCell>
        <mxCell id="kp8vzS06gtG1bZWTTT-e-4" value="0" style="shape=partialRectangle;html=1;whiteSpace=wrap;connectable=0;strokeColor=inherit;overflow=hidden;fillColor=none;top=0;left=0;bottom=0;right=0;pointerEvents=1;fontSize=16;rounded=1;shadow=0;strokeWidth=1;fontFamily=Ubuntu;fontStyle=0;" vertex="1" parent="kp8vzS06gtG1bZWTTT-e-2">
          <mxGeometry x="180" width="60" height="40" as="geometry">
            <mxRectangle width="60" height="40" as="alternateBounds" />
          </mxGeometry>
        </mxCell>
        <mxCell id="kp8vzS06gtG1bZWTTT-e-5" value="0" style="shape=partialRectangle;html=1;whiteSpace=wrap;connectable=0;strokeColor=inherit;overflow=hidden;fillColor=none;top=0;left=0;bottom=0;right=0;pointerEvents=1;fontSize=16;rounded=1;shadow=0;strokeWidth=1;fontFamily=Ubuntu;fontStyle=0;" vertex="1" parent="kp8vzS06gtG1bZWTTT-e-2">
          <mxGeometry x="240" width="60" height="40" as="geometry">
            <mxRectangle width="60" height="40" as="alternateBounds" />
          </mxGeometry>
        </mxCell>
        <mxCell id="kp8vzS06gtG1bZWTTT-e-6" value="" style="shape=tableRow;horizontal=0;startSize=0;swimlaneHead=0;swimlaneBody=0;strokeColor=inherit;top=0;left=0;bottom=0;right=0;collapsible=0;dropTarget=0;fillColor=none;points=[[0,0.5],[1,0.5]];portConstraint=eastwest;fontSize=16;rounded=1;shadow=0;strokeWidth=1;fontFamily=Ubuntu;fontStyle=0;" vertex="1" parent="kp8vzS06gtG1bZWTTT-e-1">
          <mxGeometry y="160" width="300" height="40" as="geometry" />
        </mxCell>
        <mxCell id="kp8vzS06gtG1bZWTTT-e-18" value="0" style="shape=partialRectangle;html=1;whiteSpace=wrap;connectable=0;strokeColor=inherit;overflow=hidden;fillColor=none;top=0;left=0;bottom=0;right=0;pointerEvents=1;fontSize=16;rounded=1;shadow=0;strokeWidth=1;fontFamily=Ubuntu;fontStyle=0;" vertex="1" parent="kp8vzS06gtG1bZWTTT-e-6">
          <mxGeometry width="60" height="40" as="geometry">
            <mxRectangle width="60" height="40" as="alternateBounds" />
          </mxGeometry>
        </mxCell>
        <mxCell id="kp8vzS06gtG1bZWTTT-e-15" value="0" style="shape=partialRectangle;html=1;whiteSpace=wrap;connectable=0;strokeColor=inherit;overflow=hidden;fillColor=none;top=0;left=0;bottom=0;right=0;pointerEvents=1;fontSize=16;rounded=1;shadow=0;strokeWidth=1;fontFamily=Ubuntu;fontStyle=0;" vertex="1" parent="kp8vzS06gtG1bZWTTT-e-6">
          <mxGeometry x="60" width="60" height="40" as="geometry">
            <mxRectangle width="60" height="40" as="alternateBounds" />
          </mxGeometry>
        </mxCell>
        <mxCell id="kp8vzS06gtG1bZWTTT-e-7" value="0" style="shape=partialRectangle;html=1;whiteSpace=wrap;connectable=0;strokeColor=inherit;overflow=hidden;fillColor=none;top=0;left=0;bottom=0;right=0;pointerEvents=1;fontSize=16;rounded=1;shadow=0;strokeWidth=1;fontFamily=Ubuntu;fontStyle=0;" vertex="1" parent="kp8vzS06gtG1bZWTTT-e-6">
          <mxGeometry x="120" width="60" height="40" as="geometry">
            <mxRectangle width="60" height="40" as="alternateBounds" />
          </mxGeometry>
        </mxCell>
        <mxCell id="kp8vzS06gtG1bZWTTT-e-8" value="0" style="shape=partialRectangle;html=1;whiteSpace=wrap;connectable=0;strokeColor=inherit;overflow=hidden;fillColor=none;top=0;left=0;bottom=0;right=0;pointerEvents=1;fontSize=16;rounded=1;shadow=0;strokeWidth=1;fontFamily=Ubuntu;fontStyle=0;" vertex="1" parent="kp8vzS06gtG1bZWTTT-e-6">
          <mxGeometry x="180" width="60" height="40" as="geometry">
            <mxRectangle width="60" height="40" as="alternateBounds" />
          </mxGeometry>
        </mxCell>
        <mxCell id="kp8vzS06gtG1bZWTTT-e-9" value="-1" style="shape=partialRectangle;html=1;whiteSpace=wrap;connectable=0;strokeColor=inherit;overflow=hidden;fillColor=none;top=0;left=0;bottom=0;right=0;pointerEvents=1;fontSize=16;rounded=1;shadow=0;strokeWidth=1;fontFamily=Ubuntu;fontStyle=0;" vertex="1" parent="kp8vzS06gtG1bZWTTT-e-6">
          <mxGeometry x="240" width="60" height="40" as="geometry">
            <mxRectangle width="60" height="40" as="alternateBounds" />
          </mxGeometry>
        </mxCell>
        <mxCell id="kp8vzS06gtG1bZWTTT-e-10" value="" style="shape=tableRow;horizontal=0;startSize=0;swimlaneHead=0;swimlaneBody=0;strokeColor=inherit;top=0;left=0;bottom=0;right=0;collapsible=0;dropTarget=0;fillColor=none;points=[[0,0.5],[1,0.5]];portConstraint=eastwest;fontSize=16;rounded=1;shadow=0;strokeWidth=1;fontFamily=Ubuntu;fontStyle=0;" vertex="1" parent="kp8vzS06gtG1bZWTTT-e-1">
          <mxGeometry y="200" width="300" height="40" as="geometry" />
        </mxCell>
        <mxCell id="kp8vzS06gtG1bZWTTT-e-19" value="0" style="shape=partialRectangle;html=1;whiteSpace=wrap;connectable=0;strokeColor=inherit;overflow=hidden;fillColor=none;top=0;left=0;bottom=0;right=0;pointerEvents=1;fontSize=16;rounded=1;shadow=0;strokeWidth=1;fontFamily=Ubuntu;fontStyle=0;" vertex="1" parent="kp8vzS06gtG1bZWTTT-e-10">
          <mxGeometry width="60" height="40" as="geometry">
            <mxRectangle width="60" height="40" as="alternateBounds" />
          </mxGeometry>
        </mxCell>
        <mxCell id="kp8vzS06gtG1bZWTTT-e-16" value="0" style="shape=partialRectangle;html=1;whiteSpace=wrap;connectable=0;strokeColor=inherit;overflow=hidden;fillColor=none;top=0;left=0;bottom=0;right=0;pointerEvents=1;fontSize=16;rounded=1;shadow=0;strokeWidth=1;fontFamily=Ubuntu;fontStyle=0;" vertex="1" parent="kp8vzS06gtG1bZWTTT-e-10">
          <mxGeometry x="60" width="60" height="40" as="geometry">
            <mxRectangle width="60" height="40" as="alternateBounds" />
          </mxGeometry>
        </mxCell>
        <mxCell id="kp8vzS06gtG1bZWTTT-e-11" value="0" style="shape=partialRectangle;html=1;whiteSpace=wrap;connectable=0;strokeColor=inherit;overflow=hidden;fillColor=none;top=0;left=0;bottom=0;right=0;pointerEvents=1;fontSize=16;rounded=1;shadow=0;strokeWidth=1;fontFamily=Ubuntu;fontStyle=0;" vertex="1" parent="kp8vzS06gtG1bZWTTT-e-10">
          <mxGeometry x="120" width="60" height="40" as="geometry">
            <mxRectangle width="60" height="40" as="alternateBounds" />
          </mxGeometry>
        </mxCell>
        <mxCell id="kp8vzS06gtG1bZWTTT-e-12" value="0" style="shape=partialRectangle;html=1;whiteSpace=wrap;connectable=0;strokeColor=inherit;overflow=hidden;fillColor=none;top=0;left=0;bottom=0;right=0;pointerEvents=1;fontSize=16;rounded=1;shadow=0;strokeWidth=1;fontFamily=Ubuntu;fontStyle=0;" vertex="1" parent="kp8vzS06gtG1bZWTTT-e-10">
          <mxGeometry x="180" width="60" height="40" as="geometry">
            <mxRectangle width="60" height="40" as="alternateBounds" />
          </mxGeometry>
        </mxCell>
        <mxCell id="kp8vzS06gtG1bZWTTT-e-13" value="0" style="shape=partialRectangle;html=1;whiteSpace=wrap;connectable=0;strokeColor=inherit;overflow=hidden;fillColor=none;top=0;left=0;bottom=0;right=0;pointerEvents=1;fontSize=16;rounded=1;shadow=0;strokeWidth=1;fontFamily=Ubuntu;fontStyle=0;" vertex="1" parent="kp8vzS06gtG1bZWTTT-e-10">
          <mxGeometry x="240" width="60" height="40" as="geometry">
            <mxRectangle width="60" height="40" as="alternateBounds" />
          </mxGeometry>
        </mxCell>
      </root>
    </mxGraphModel>
  </diagram>
</mxfile>
